[Header]			# Header keywords are followed by a single value
FileType htr		# single word string
DataType HTRS		# Hierarchical translations followed by rotations and Scale
FileVersion 1		# integer
NumSegments 20		# integer
NumFrames 6		# integer
DataFrameRate 60	# integer
EulerRotationOrder ZYX	# one word string
CalibrationUnits mm	# one word string
RotationUnits Degrees	# one word string
GlobalAxisofGravity Y	# character, X or Y or Z
BoneLengthAxis Y
ScaleFactor 1.000000
[SegmentNames&Hierarchy]
#CHILD	PARENT
LowerTorso	GLOBAL
UpperTorso	LowerTorso
LCollarBone	UpperTorso
RCollarBone	UpperTorso
LUpArm	LCollarBone
RUpArm	RCollarBone
LLowArm	LUpArm
RLowArm	RUpArm
LHand	LLowArm
RHand	RLowArm
LPelvis	LowerTorso
RPelvis	LowerTorso
LThigh	LPelvis
RThigh	RPelvis
LLowLeg	LThigh
RLowLeg	RThigh
LFoot	LLowLeg
RFoot	RLowLeg
Neck	UpperTorso
Head	Neck
[BasePosition]
#SegmentName Tx, Ty, Tz, Rx, Ry, Rz, BoneLength
LowerTorso	0.000000	0.000000	0.000000	0.000000	0.000000	0.000000	247.497849
UpperTorso	0.000000	247.497849	0.000000	-3.483188	-0.016176	-0.898562	303.935425
LCollarBone	0.000000	303.935425	0.000000	-2.778975	2.380151	-103.909637	160.814774
RCollarBone	0.000000	303.935425	0.000000	1.923138	-2.431442	97.423370	173.085861
LUpArm	0.000000	160.814774	0.000000	9.905276	-0.146364	3.830753	266.228302
RUpArm	0.000000	173.085861	0.000000	3.559436	0.163580	4.186032	250.544907
LLowArm	0.000000	266.228302	0.000000	0.604391	2.460426	18.478745	239.401855
RLowArm	0.000000	250.544907	0.000000	-4.677841	-1.676118	-16.763147	247.676224
LHand	0.000000	239.401855	0.000000	-2.922581	-1.504997	-10.879651	178.693573
RHand	0.000000	247.676224	0.000000	8.087741	0.221451	14.771751	171.097885
LPelvis	0.000000	0.000000	0.000000	25.628080	-1.004481	-103.107483	127.213554
RPelvis	0.000000	0.000000	0.000000	7.212610	1.026056	95.806335	154.731140
LThigh	0.000000	127.213554	0.000000	-8.629928	-24.934669	-78.343170	392.414856
RThigh	0.000000	154.731140	0.000000	-0.087953	7.045837	82.361420	403.151337
LLowLeg	0.000000	392.414856	0.000000	-11.135172	-0.396179	6.207254	411.539612
RLowLeg	0.000000	403.151337	0.000000	-15.879393	-0.038285	-2.567663	396.965240
LFoot	0.000000	411.539612	0.000000	86.993790	-9.419292	-7.421347	182.020935
RFoot	0.000000	396.965240	0.000000	85.685738	19.489246	8.810133	181.714371
Neck	0.000000	303.935425	0.000000	26.917892	0.010495	-0.245093	141.112030
Head	0.000000	141.112030	0.000000	-34.290924	-1.751020	-3.852423	164.098740
#Beginning of Data. Separated by tabs.
[LowerTorso]
#Fr	Tx	Ty	Tz	Rx	Ry	Rz	SF
125	86.362732	801.411011	-1904.440674	13.282960	-59.976883	5.622714	1.000000
126	53.122494	813.453552	-1889.420532	12.071071	-61.566376	6.842392	1.000000
127	17.964468	826.436584	-1873.787109	11.325793	-63.230007	7.517715	1.000000
128	-18.947430	839.801819	-1857.597046	11.168096	-64.998276	7.504922	1.000000
129	-57.271236	852.881042	-1840.952515	11.725943	-66.816040	6.696728	1.000000
130	-96.620110	864.928284	-1824.026611	13.117548	-68.539040	4.980609	1.000000
[UpperTorso]
#Fr	Tx	Ty	Tz	Rx	Ry	Rz	SF
125	0.000000	0.000000	0.000000	20.465763	12.557200	5.582489	1.000000
126	0.000000	0.000000	0.000000	20.370924	14.774217	3.737190	1.000000
127	0.000000	0.000000	0.000000	20.032095	17.034229	2.051941	1.000000
128	0.000000	0.000000	0.000000	19.488222	19.323278	0.629464	1.000000
129	0.000000	0.000000	0.000000	18.824104	21.580412	-0.440487	1.000000
130	0.000000	0.000000	0.000000	18.158567	23.710667	-1.081052	1.000000
[LCollarBone]
#Fr	Tx	Ty	Tz	Rx	Ry	Rz	SF
125	0.000000	0.000000	0.000000	-2.489336	-0.596691	1.213850	1.000000
126	0.000000	0.000000	0.000000	-2.812331	-0.672209	1.168511	1.000000
127	0.000000	0.000000	0.000000	-3.095300	-0.744333	0.723568	1.000000
128	0.000000	0.000000	0.000000	-3.240549	-0.794260	-0.189254	1.000000
129	0.000000	0.000000	0.000000	-3.196306	-0.806783	-1.515275	1.000000
130	0.000000	0.000000	0.000000	-3.041750	-0.794763	-3.127738	1.000000
[RCollarBone]
#Fr	Tx	Ty	Tz	Rx	Ry	Rz	SF
125	0.000000	0.000000	0.000000	5.790805	-0.293119	-7.606856	1.000000
126	0.000000	0.000000	0.000000	6.980264	-0.135823	-9.487340	1.000000
127	0.000000	0.000000	0.000000	8.170056	0.066895	-11.043883	1.000000
128	0.000000	0.000000	0.000000	9.336135	0.269471	-12.128124	1.000000
129	0.000000	0.000000	0.000000	10.349313	0.416095	-12.624676	1.000000
130	0.000000	0.000000	0.000000	11.112814	0.463241	-12.507370	1.000000
[LUpArm]
#Fr	Tx	Ty	Tz	Rx	Ry	Rz	SF
125	0.000000	0.000000	0.000000	-4.456287	-2.985901	11.802772	1.000000
126	0.000000	0.000000	0.000000	-5.012343	-4.754528	6.566090	1.000000
127	0.000000	0.000000	0.000000	-5.969781	-7.226173	1.995847	1.000000
128	0.000000	0.000000	0.000000	-7.682098	-9.716405	-1.863821	1.000000
129	0.000000	0.000000	0.000000	-10.268327	-11.554734	-5.204415	1.000000
130	0.000000	0.000000	0.000000	-13.400767	-12.253472	-8.450579	1.000000
[RUpArm]
#Fr	Tx	Ty	Tz	Rx	Ry	Rz	SF
125	0.000000	0.000000	0.000000	-13.598108	-5.666262	0.083574	1.000000
126	0.000000	0.000000	0.000000	-12.256692	-6.803108	-3.172273	1.000000
127	0.000000	0.000000	0.000000	-10.883146	-8.203902	-6.255572	1.000000
128	0.000000	0.000000	0.000000	-9.632401	-9.577922	-9.528784	1.000000
129	0.000000	0.000000	0.000000	-8.508298	-10.380374	-13.394479	1.000000
130	0.000000	0.000000	0.000000	-7.479870	-10.015713	-18.026009	1.000000
[LLowArm]
#Fr	Tx	Ty	Tz	Rx	Ry	Rz	SF
125	0.000000	0.000000	0.000000	-5.828681	0.881885	-0.168852	1.000000
126	0.000000	0.000000	0.000000	-8.674388	1.304890	-0.283611	1.000000
127	0.000000	0.000000	0.000000	-10.258327	1.537624	-0.356528	1.000000
128	0.000000	0.000000	0.000000	-10.455730	1.566481	-0.366064	1.000000
129	0.000000	0.000000	0.000000	-9.431140	1.416343	-0.317646	1.000000
130	0.000000	0.000000	0.000000	-7.699093	1.160585	-0.241919	1.000000
[RLowArm]
#Fr	Tx	Ty	Tz	Rx	Ry	Rz	SF
125	0.000000	0.000000	0.000000	7.070002	0.623354	0.029032	1.000000
126	0.000000	0.000000	0.000000	7.468604	0.658336	0.032956	1.000000
127	0.000000	0.000000	0.000000	8.045075	0.708878	0.039062	1.000000
128	0.000000	0.000000	0.000000	9.266849	0.815775	0.053683	1.000000
129	0.000000	0.000000	0.000000	11.718292	1.029180	0.089875	1.000000
130	0.000000	0.000000	0.000000	15.816387	1.381781	0.170641	1.000000
[LHand]
#Fr	Tx	Ty	Tz	Rx	Ry	Rz	SF
125	0.000000	0.000000	0.000000	25.722864	-21.718882	-7.146469	1.000000
126	0.000000	0.000000	0.000000	25.666571	-20.876465	-8.589721	1.000000
127	0.000000	0.000000	0.000000	23.879499	-19.874413	-8.999644	1.000000
128	0.000000	0.000000	0.000000	21.260277	-19.043255	-8.575144	1.000000
129	0.000000	0.000000	0.000000	18.705179	-18.644314	-7.580119	1.000000
130	0.000000	0.000000	0.000000	16.885166	-18.855515	-6.336432	1.000000
[RHand]
#Fr	Tx	Ty	Tz	Rx	Ry	Rz	SF
125	0.000000	0.000000	0.000000	19.147360	27.411654	0.683700	1.000000
126	0.000000	0.000000	0.000000	19.706711	27.100481	-0.077908	1.000000
127	0.000000	0.000000	0.000000	20.848175	27.161716	-0.734401	1.000000
128	0.000000	0.000000	0.000000	22.105923	27.408609	-1.384976	1.000000
129	0.000000	0.000000	0.000000	22.201090	27.414665	-2.377428	1.000000
130	0.000000	0.000000	0.000000	19.818764	26.685879	-4.073779	1.000000
[LPelvis]
#Fr	Tx	Ty	Tz	Rx	Ry	Rz	SF
125	0.000000	0.000000	0.000000	0.000000	0.000000	0.000000	1.000000
126	0.000000	0.000000	0.000000	0.000000	0.000000	0.000000	1.000000
127	0.000000	0.000000	0.000000	0.000000	0.000000	0.000000	1.000000
128	0.000000	0.000000	0.000000	0.000000	0.000000	0.000000	1.000000
129	0.000000	0.000000	0.000000	0.000000	0.000000	0.000000	1.000000
130	0.000000	0.000000	0.000000	0.000000	0.000000	0.000000	1.000000
[RPelvis]
#Fr	Tx	Ty	Tz	Rx	Ry	Rz	SF
125	0.000000	0.000000	0.000000	0.000000	0.000000	0.000000	1.000000
126	0.000000	0.000000	0.000000	0.000000	0.000000	0.000000	1.000000
127	0.000000	0.000000	0.000000	0.000000	0.000000	0.000000	1.000000
128	0.000000	0.000000	0.000000	0.000000	0.000000	0.000000	1.000000
129	0.000000	0.000000	0.000000	0.000000	0.000000	0.000000	1.000000
130	0.000000	0.000000	0.000000	0.000000	0.000000	0.000000	1.000000
[LThigh]
#Fr	Tx	Ty	Tz	Rx	Ry	Rz	SF
125	0.000000	0.000000	0.000000	65.588676	9.128910	-10.222161	1.000000
126	0.000000	0.000000	0.000000	67.330063	9.253974	-12.296912	1.000000
127	0.000000	0.000000	0.000000	68.251945	8.603646	-14.172677	1.000000
128	0.000000	0.000000	0.000000	68.396393	7.244064	-15.905793	1.000000
129	0.000000	0.000000	0.000000	67.914322	5.522290	-17.329891	1.000000
130	0.000000	0.000000	0.000000	66.940041	3.812309	-18.219513	1.000000
[RThigh]
#Fr	Tx	Ty	Tz	Rx	Ry	Rz	SF
125	0.000000	0.000000	0.000000	17.864531	12.998206	6.000288	1.000000
126	0.000000	0.000000	0.000000	13.429675	11.313075	4.453607	1.000000
127	0.000000	0.000000	0.000000	9.290812	9.115997	3.301412	1.000000
128	0.000000	0.000000	0.000000	5.612570	6.786553	2.510287	1.000000
129	0.000000	0.000000	0.000000	2.446318	4.877388	1.941245	1.000000
130	0.000000	0.000000	0.000000	-0.260000	3.809915	1.442482	1.000000
[LLowLeg]
#Fr	Tx	Ty	Tz	Rx	Ry	Rz	SF
125	0.000000	0.000000	0.000000	-76.918068	5.425415	-2.381468	1.000000
126	0.000000	0.000000	0.000000	-71.686440	5.205987	-2.006907	1.000000
127	0.000000	0.000000	0.000000	-65.559135	4.906849	-1.595841	1.000000
128	0.000000	0.000000	0.000000	-58.661114	4.519676	-1.174294	1.000000
129	0.000000	0.000000	0.000000	-51.189056	4.046223	-0.773755	1.000000
130	0.000000	0.000000	0.000000	-43.352619	3.497765	-0.423620	1.000000
[RLowLeg]
#Fr	Tx	Ty	Tz	Rx	Ry	Rz	SF
125	0.000000	0.000000	0.000000	-37.568504	-2.092587	0.137483	1.000000
126	0.000000	0.000000	0.000000	-32.920296	-1.844884	0.046201	1.000000
127	0.000000	0.000000	0.000000	-28.418192	-1.598626	-0.022788	1.000000
128	0.000000	0.000000	0.000000	-24.307924	-1.369660	-0.068710	1.000000
129	0.000000	0.000000	0.000000	-20.592081	-1.160281	-0.096001	1.000000
130	0.000000	0.000000	0.000000	-17.204481	-0.968201	-0.109005	1.000000
[LFoot]
#Fr	Tx	Ty	Tz	Rx	Ry	Rz	SF
125	0.000000	0.000000	0.000000	4.985763	2.949999	8.892801	1.000000
126	0.000000	0.000000	0.000000	4.940692	2.187083	7.011885	1.000000
127	0.000000	0.000000	0.000000	4.910292	1.215159	4.655788	1.000000
128	0.000000	0.000000	0.000000	4.883047	0.363705	2.613185	1.000000
129	0.000000	0.000000	0.000000	4.756612	-0.093643	1.477509	1.000000
130	0.000000	0.000000	0.000000	4.405497	-0.215492	1.048229	1.000000
[RFoot]
#Fr	Tx	Ty	Tz	Rx	Ry	Rz	SF
125	0.000000	0.000000	0.000000	17.293346	7.256693	14.611403	1.000000
126	0.000000	0.000000	0.000000	13.044062	7.175876	14.921406	1.000000
127	0.000000	0.000000	0.000000	7.042254	7.131373	14.892671	1.000000
128	0.000000	0.000000	0.000000	-0.592184	7.327519	14.797586	1.000000
129	0.000000	0.000000	0.000000	-9.401357	8.109702	14.782693	1.000000
130	0.000000	0.000000	0.000000	-18.911804	9.802926	14.669577	1.000000
[Neck]
#Fr	Tx	Ty	Tz	Rx	Ry	Rz	SF
125	0.000000	0.000000	0.000000	-1.968377	-5.458080	-3.459683	1.000000
126	0.000000	0.000000	0.000000	-1.629409	-5.227496	-3.495333	1.000000
127	0.000000	0.000000	0.000000	-1.293549	-4.984820	-3.521467	1.000000
128	0.000000	0.000000	0.000000	-0.968561	-4.737855	-3.542570	1.000000
129	0.000000	0.000000	0.000000	-0.656562	-4.493631	-3.567056	1.000000
130	0.000000	0.000000	0.000000	-0.357404	-4.253428	-3.600709	1.000000
[Head]
#Fr	Tx	Ty	Tz	Rx	Ry	Rz	SF
125	0.000000	0.000000	0.000000	-2.844612	-5.745001	-11.804747	1.000000
126	0.000000	0.000000	0.000000	-2.252950	-5.193726	-11.614776	1.000000
127	0.000000	0.000000	0.000000	-1.679359	-4.641157	-11.386220	1.000000
128	0.000000	0.000000	0.000000	-1.127381	-4.098033	-11.142879	1.000000
129	0.000000	0.000000	0.000000	-0.606800	-3.572747	-10.918462	1.000000
130	0.000000	0.000000	0.000000	-0.117259	-3.056282	-10.732592	1.000000
[EndOfFile]
